<svg viewBox="0 0 25 24" fill="none" xmlns="http://www.w3.org/2000/svg">
<path d="M18.2188 11.125H13.1562V6.0625C13.1562 5.78125 12.875 5.5 12.5938 5.5H11.4688C11.1523 5.5 10.9062 5.78125 10.9062 6.0625V11.125H5.84375C5.52734 11.125 5.28125 11.4062 5.28125 11.6875V12.8125C5.28125 13.1289 5.52734 13.375 5.84375 13.375H10.9062V18.4375C10.9062 18.7539 11.1523 19 11.4688 19H12.5938C12.875 19 13.1562 18.7539 13.1562 18.4375V13.375H18.2188C18.5 13.375 18.7812 13.1289 18.7812 12.8125V11.6875C18.7812 11.4062 18.5 11.125 18.2188 11.125Z" fill="currentColor"/>
</svg>
