<svg viewBox="0 0 14 14" fill="none" xmlns="http://www.w3.org/2000/svg">
<path d="M2.9987 1.66732C3.36689 1.66732 3.66536 1.36884 3.66536 1.00065C3.66536 0.632461 3.96384 0.333984 4.33203 0.333984H9.66537C10.0336 0.333984 10.332 0.632461 10.332 1.00065C10.332 1.36884 10.6305 1.66732 10.9987 1.66732H12.9987C13.3669 1.66732 13.6654 1.96579 13.6654 2.33398C13.6654 2.70217 13.3669 3.00065 12.9987 3.00065C12.6305 3.00065 12.332 3.29913 12.332 3.66732V13.0007C12.332 13.1775 12.2618 13.347 12.1368 13.4721C12.0117 13.5971 11.8422 13.6673 11.6654 13.6673H2.33203C2.15522 13.6673 1.98565 13.5971 1.86063 13.4721C1.7356 13.347 1.66536 13.1775 1.66536 13.0007V3.66732C1.66536 3.29913 1.36689 3.00065 0.998698 3.00065C0.630508 3.00065 0.332031 2.70217 0.332031 2.33398C0.332031 1.96579 0.630508 1.66732 0.998698 1.66732H2.9987ZM3.9987 3.00065C3.44641 3.00065 2.9987 3.44837 2.9987 4.00065V11.334C2.9987 11.8863 3.44641 12.334 3.9987 12.334H9.9987C10.551 12.334 10.9987 11.8863 10.9987 11.334V4.00065C10.9987 3.44837 10.551 3.00065 9.9987 3.00065H3.9987ZM4.9987 5.66732C4.9987 5.29913 5.29717 5.00065 5.66536 5.00065C6.03355 5.00065 6.33203 5.29913 6.33203 5.66732V9.66732C6.33203 10.0355 6.03355 10.334 5.66536 10.334C5.29717 10.334 4.9987 10.0355 4.9987 9.66732V5.66732ZM7.66536 5.66732C7.66536 5.29913 7.96384 5.00065 8.33203 5.00065C8.70022 5.00065 8.9987 5.29913 8.9987 5.66732V9.66732C8.9987 10.0355 8.70022 10.334 8.33203 10.334C7.96384 10.334 7.66536 10.0355 7.66536 9.66732V5.66732Z" fill="currentColor"/>
</svg>
